<?xml version="1.0" standalone="no"?>
<!DOCTYPE svg PUBLIC "-//W3C//DTD SVG 20010904//EN"
 "http://www.w3.org/TR/2001/REC-SVG-20010904/DTD/svg10.dtd">
<svg version="1.0" xmlns="http://www.w3.org/2000/svg"
 width="700.000000pt" height="700.000000pt" viewBox="0 0 700.000000 700.000000"
 preserveAspectRatio="xMidYMid meet">
<metadata>
Created by potrace 1.11, written by Peter Selinger 2001-2013
</metadata>
<g transform="translate(0.000000,700.000000) scale(0.100000,-0.100000)"
fill="#000000" stroke="none">
<path d="M1024 6493 l1 -498 500 -2 c275 -1 502 -2 505 -2 8 -1 6 -1978 -2
-1986 -3 -4 -231 -6 -505 -6 l-499 0 0 -497 1 -497 499 -2 c274 -1 501 -5 504
-8 4 -3 7 -252 8 -553 1 -494 6 -691 18 -710 2 -4 7 -34 11 -67 9 -81 47 -229
89 -345 167 -466 567 -900 1033 -1121 48 -22 131 -56 183 -74 160 -56 291 -85
480 -105 96 -10 428 -5 500 9 30 5 73 12 95 15 22 3 65 12 97 20 31 9 67 17
80 20 44 8 203 65 263 94 33 16 78 37 100 47 106 48 316 193 429 296 87 80
216 215 246 259 8 13 21 29 28 36 37 39 151 224 202 329 53 108 106 241 115
288 2 9 11 45 20 80 19 70 19 74 35 175 30 202 30 450 1 619 -5 32 -12 72 -15
88 -40 260 -177 563 -364 805 -108 140 -304 328 -454 436 -43 32 -225 144
-233 144 -2 0 -41 18 -87 39 -151 71 -380 138 -533 156 -32 4 -68 9 -80 12
-11 3 -294 7 -629 9 -335 2 -611 6 -614 8 -2 3 -4 675 -4 1495 l1 1491 -1013
0 -1013 0 1 -497z m3101 -3497 c108 -6 115 -7 206 -30 327 -84 620 -379 711
-716 32 -120 32 -375 0 -495 -64 -236 -240 -469 -457 -602 -121 -74 -211 -106
-390 -138 -16 -3 -77 -5 -135 -5 -320 -1 -582 127 -803 391 -26 31 -47 60 -47
64 0 5 -6 16 -14 24 -39 44 -105 206 -129 316 -18 81 -20 247 -17 1067 l0 127
38 3 c63 5 930 0 1037 -6z"/>
</g>
</svg>
