<svg viewBox="0 0 460 50" xmlns="http://www.w3.org/2000/svg" fill-rule="evenodd" clip-rule="evenodd" stroke-linejoin="round" stroke-miterlimit="1.414"><path d="M430.001 0H460v30h-30l.001-30z" fill="#222"/><path d="M430.001 29H460v1h-30l.001-1z" fill="#ff6200"/><path d="M452.983 8.211l-11.01 11.083-4.954-4.954a1.152 1.152 0 00-1.687 0c-.22.217-.34.516-.332.825 0 .33.111.607.332.825l5.835 5.8c.22.243.495.366.825.366.33 0 .606-.123.825-.367l.146-.147 11.708-11.779c.22-.22.33-.497.33-.826 0-.33-.11-.605-.33-.826a1.163 1.163 0 00-.844-.367c-.318 0-.6.123-.844.367z" fill="#ff6200" fill-rule="nonzero"/><path d="M395.001 0H425v30h-30l.001-30z" fill="#222"/><path d="M395.001 29H425v1h-30l.001-1z" fill="#ff6200"/><path d="M360.001 0H390v30h-30l.001-30z" fill="#222"/><path d="M360.001 29H390v1h-30l.001-1z" fill="#444"/><path d="M382.983 8.163l-11.01 11.082-4.954-4.954a1.152 1.152 0 00-1.687 0c-.22.217-.34.516-.332.825 0 .33.111.607.332.825l5.835 5.8c.22.243.495.366.825.366.33 0 .606-.123.825-.367l.146-.147 11.708-11.779c.22-.22.33-.497.33-.826 0-.33-.11-.605-.33-.825a1.159 1.159 0 00-.844-.368c-.318 0-.6.123-.844.368z" fill="#ff6200" fill-rule="nonzero"/><path d="M325.001 0H355v30h-30l.001-30z" fill="#222"/><path d="M325.001 29H355v1h-30l.001-1z" fill="#444"/><path d="M290.038 0h29.999v30h-30l.001-30z" fill="#f3f3f3"/><path d="M290.038 29h29.999v1h-30l.001-1z" fill="#ff6200"/><path d="M313.02 8.211l-11.01 11.083-4.954-4.954a1.152 1.152 0 00-1.687 0c-.22.217-.34.516-.332.825 0 .33.111.607.332.825l5.835 5.8c.22.243.495.366.825.366.33 0 .606-.123.825-.367l.146-.147 11.708-11.779c.22-.22.33-.497.33-.826 0-.33-.11-.605-.33-.826a1.163 1.163 0 00-.844-.367c-.318 0-.6.123-.844.367z" fill="#ff6200" fill-rule="nonzero"/><g><path d="M255.038 0h29.999v30h-30l.001-30z" fill="#f3f3f3"/><path d="M255.038 29h29.999v1h-30l.001-1z" fill="#f50"/></g><g><path d="M220.038 0h29.999v30h-30l.001-30z" fill="#f3f3f3"/><path d="M220.038 29h29.999v1h-30l.001-1z" fill="#d3d3d3"/><path d="M243.02 8.163l-11.01 11.082-4.954-4.954a1.152 1.152 0 00-1.687 0c-.22.217-.34.516-.332.825 0 .33.111.607.332.825l5.835 5.8c.22.243.495.366.825.366.33 0 .606-.123.825-.367l.146-.147 11.708-11.779c.22-.22.33-.497.33-.826 0-.33-.11-.605-.33-.825a1.159 1.159 0 00-.844-.368c-.318 0-.6.123-.844.368z" fill="#ff6200" fill-rule="nonzero"/></g><g><path d="M185.038 0h29.999v30h-30l.001-30z" fill="#f3f3f3"/><path d="M185.038 29h29.999v1h-30l.001-1z" fill="#d3d3d3"/></g><g><path d="M155.361 34.99a.743.743 0 01-.264-.048.649.649 0 01-.224-.148.635.635 0 01-.195-.468c0-.182.064-.338.195-.468l8.925-8.927-8.789-8.769a.648.648 0 01-.195-.479c0-.188.065-.348.195-.477a.652.652 0 01.48-.197c.187 0 .347.066.477.197l9.238 9.257c.131.13.195.286.195.468a.64.64 0 01-.195.47l-9.375 9.393a.672.672 0 01-.468.196z" fill="#ff6200" fill-rule="nonzero" stroke="#ff6200" stroke-width=".7"/></g><g><path d="M115.361 34.99a.743.743 0 01-.264-.048.649.649 0 01-.224-.148.635.635 0 01-.195-.468c0-.182.064-.338.195-.468l8.925-8.927-8.789-8.769a.648.648 0 01-.195-.479c0-.188.065-.348.195-.477a.652.652 0 01.48-.197c.187 0 .347.066.477.197l9.238 9.257c.131.13.195.286.195.468a.64.64 0 01-.195.47l-9.375 9.393a.672.672 0 01-.468.196z" fill="#aaa" fill-rule="nonzero" stroke="#aaa" stroke-width=".7"/></g><g><path d="M60.199 35.958a.975.975 0 00.293.704.96.96 0 00.703.292.96.96 0 00.703-.292l13.243-13.214 13.037 13.037a.958.958 0 00.702.294.962.962 0 00.704-.294.955.955 0 00.293-.703.955.955 0 00-.293-.703l-13.74-13.77a1.018 1.018 0 00-.703-.263c-.274 0-.508.088-.703.263L60.492 35.255c-.185.187-.29.44-.293.703z" fill="#ff6200" fill-rule="nonzero" stroke="#ff6200" stroke-width=".25"/><path d="M60.199 27.004a.975.975 0 00.293.704.96.96 0 00.703.292.96.96 0 00.703-.292l13.243-13.214 13.037 13.037a.958.958 0 00.702.294.962.962 0 00.704-.294.955.955 0 00.293-.703.955.955 0 00-.293-.703l-13.74-13.77a1.018 1.018 0 00-.703-.263c-.274 0-.508.088-.703.263L60.492 26.301c-.185.187-.29.44-.293.703z" fill="#ff6200" fill-rule="nonzero" stroke="#ff6200" stroke-width=".25"/></g><g><path d="M10.2 35.958a.975.975 0 00.293.704.96.96 0 00.703.292.96.96 0 00.703-.292l13.242-13.214 13.037 13.037c.195.195.43.294.703.294a.962.962 0 00.704-.294.96.96 0 00.292-.703.96.96 0 00-.292-.703l-13.74-13.77a1.014 1.014 0 00-.704-.263 1.018 1.018 0 00-.703.263L10.493 35.255c-.185.187-.29.44-.293.703z" fill="#aaa" fill-rule="nonzero" stroke="#aaa" stroke-width=".4"/><path d="M10.2 27.004a.975.975 0 00.293.704.96.96 0 00.703.292.96.96 0 00.703-.292l13.242-13.214 13.037 13.037c.195.195.43.294.703.294a.962.962 0 00.704-.294.96.96 0 00.292-.703.96.96 0 00-.292-.703l-13.74-13.77a1.014 1.014 0 00-.704-.263 1.018 1.018 0 00-.703.263L10.493 26.301c-.185.187-.29.44-.293.703z" fill="#aaa" fill-rule="nonzero" stroke="#aaa" stroke-width=".4"/></g></svg>